<svg data-v-423bf9ae="" xmlns="http://www.w3.org/2000/svg" viewBox="0 0 337 97" class="iconLeftSlogan"><!----><!----><!----><g data-v-423bf9ae="" id="981f0964-1b6f-4562-8e04-9f33f23a2dc9" fill="white" transform="matrix(6.322443962097168,0,0,6.322443962097168,111.93073272705078,-24.151735305786133)"><path d="M2.65 11.87L2.65 3.82L1.17 3.82L1.17 13.15L6.97 13.15L6.97 11.87ZM14.12 9.70C14.12 7.73 12.79 6.36 10.86 6.36C8.87 6.36 7.45 7.89 7.45 9.84C7.45 11.80 8.85 13.31 11.03 13.31C12.18 13.31 13.14 12.92 13.74 12.25L12.76 11.46C12.34 11.94 11.77 12.19 11.01 12.19C9.77 12.19 9.04 11.33 8.94 10.15L14.12 10.15ZM10.86 7.50C11.90 7.50 12.57 8.12 12.72 9.17L9.00 9.17C9.20 8.17 9.89 7.50 10.86 7.50ZM19.75 6.53L17.82 11.48L15.88 6.53L14.38 6.53L17.24 13.15L18.40 13.15L21.26 6.53ZM28.18 9.70C28.18 7.73 26.85 6.36 24.92 6.36C22.93 6.36 21.51 7.89 21.51 9.84C21.51 11.80 22.91 13.31 25.08 13.31C26.24 13.31 27.20 12.92 27.80 12.25L26.82 11.46C26.40 11.94 25.83 12.19 25.07 12.19C23.83 12.19 23.10 11.33 23.00 10.15L28.18 10.15ZM24.92 7.50C25.96 7.50 26.63 8.12 26.78 9.17L23.06 9.17C23.26 8.17 23.95 7.50 24.92 7.50ZM35.45 13.15L32.90 9.70L35.18 6.53L33.57 6.53L32.10 8.74L30.61 6.53L29.02 6.53L31.31 9.71L28.76 13.15L30.39 13.15L32.10 10.68L33.80 13.15Z"></path></g><!----><g data-v-423bf9ae="" id="06b47862-3517-41c0-ae4d-bf1c25e5643f" transform="matrix(1.0347306728363037,0,0,1.0347306728363037,-1.7391215562820435,-2.2842116355895996)" stroke="none" fill="white"><path d="M35.458 55.839L4.744 84.217c-2.203 2.136.275 4.861 2.438 6.446l3.666 2.69c2.171 1.588 5.687 4.09 7.889 1.935L45.25 67.491l-9.792-11.652zM89.423 25.915c-.275-.85-.813-1.612-1.632-2.211l-9.867-7.228c-1.164-.857-2.679-1.204-4.146-1.07-3.012-1.321-4.443-2.753-5.077-3.956.877-1.604.952-3.079.004-3.768l-5.852-4.291c-1.4-1.034-4.491.052-6.898 2.411l-4.932 4.79c-2.418 2.359-3.24 5.097-1.836 6.119l5.855 4.283c.912.672 2.545.437 4.239-.452 4.476 1.164 4.405 3.752 4.405 3.752a4.11 4.11 0 00.055 1.871c-.7 3.154.146 6.25.146 6.25s-1.302 1.262-5.184 5.053c-1.923 1.864-3.193 2.494-3.999 2.643a5.54 5.54 0 00-.681.028c-.244-.044-.394-.13-.456-.186l.232.201a6.985 6.985 0 00-4.016 1.907l-.602.559 1.888 2.273 7.605 8.376 2.635-2.761c1.228-1.195 1.771-2.654 1.66-3.983.338-1.011.613-1.907.613-1.907l6.575-6.246c3.178.319 6.041-.416 8.354-1.438a7.034 7.034 0 002.187-.244c12.443 4.577 10.98 19.148 10.98 19.148 2.769-.185 3.688-3.591 3.688-3.591 7.405-12.402-1.805-22.628-5.943-26.332z"></path><g><path d="M12.971 10.325c-1.75.056.197 1.742.197 1.742l7.811 5.25c2.674 1.447 1.77 3.241 1.77 3.241-1.125 4.35-7.457 6.143-7.457 6.143-1.762.943-2.627-.177-2.627-.177l-7.327-5.306c-3.504-2.1-3.166 2.053-3.166 2.053C4.107 35.361 15.96 35.753 15.96 35.753c4.244.048 6.399.646 7.441 1.098.299.437.645.885 1.093 1.36l7.842 8.743 22.4 26.656a9.753 9.753 0 001.938 1.912c.024 1.108-.185 2.784-1.081 5.309 0 0-3.127 9.675 9.941 14.866 0 0 4.594 1.521 3.272-1.936l-3.783-7.495s-1.011-1.038.586-2.171c0 0 3.929-4.57 9.175-4.169 0 0 2.305-.188 3.135 2.407l3.575 7.873s1.325 2.068 1.915.684c.369-.885 10.834-15.849-10.371-20.461 0 0-4.278-.618-6.732-3.808L44.85 42.994l-9.62-11.605c-2.871-2.938-2.277-6.56-2.277-6.56 1.16-18.475-18.873-14.543-19.982-14.504z"></path></g></g><!----><g data-v-423bf9ae="" id="725f6e6f-14db-4d1c-b5a3-5aae92aa4cc5" fill="white" transform="matrix(0.567012369632721,0,0,0.567012369632721,118.68726348876953,58.80927658081055)"><path d="M7.95 3.22L7.95 2.21L1.13 2.21L1.13 11.48L7.95 11.48L7.95 10.47L2.18 10.47L2.18 7.35L7.34 7.35L7.34 6.33L2.18 6.33L2.18 3.22ZM23.34 3.22L23.34 2.21L16.65 2.21L16.65 11.48L17.70 11.48L17.70 7.46L22.72 7.46L22.72 6.44L17.70 6.44L17.70 3.22ZM38.50 3.22L38.50 2.21L31.81 2.21L31.81 11.48L32.86 11.48L32.86 7.46L37.88 7.46L37.88 6.44L32.86 6.44L32.86 3.22ZM48.02 2.21L46.97 2.21L46.97 11.48L48.02 11.48ZM61.26 10.57C59.01 10.57 57.75 8.93 57.75 6.85C57.75 4.76 59.01 3.12 61.26 3.12C62.79 3.12 63.80 3.85 64.27 4.98L65.38 4.98C64.79 3.29 63.28 2.10 61.18 2.10C58.39 2.10 56.70 4.21 56.70 6.85C56.70 9.48 58.39 11.59 61.18 11.59C63.28 11.59 64.79 10.40 65.38 8.71L64.27 8.71C63.80 9.84 62.79 10.57 61.26 10.57ZM75.00 2.21L73.95 2.21L73.95 11.48L75.00 11.48ZM91.08 3.22L91.08 2.21L84.27 2.21L84.27 11.48L91.08 11.48L91.08 10.47L85.32 10.47L85.32 7.35L90.47 7.35L90.47 6.33L85.32 6.33L85.32 3.22ZM106.72 2.21L106.72 10.01L101.00 2.21L99.78 2.21L99.78 11.48L100.83 11.48L100.83 3.65L106.55 11.48L107.77 11.48L107.77 2.21ZM121.02 10.57C118.76 10.57 117.50 8.93 117.50 6.85C117.50 4.76 118.76 3.12 121.02 3.12C122.54 3.12 123.55 3.85 124.03 4.98L125.13 4.98C124.54 3.29 123.03 2.10 120.93 2.10C118.15 2.10 116.45 4.21 116.45 6.85C116.45 9.48 118.15 11.59 120.93 11.59C123.03 11.59 124.54 10.40 125.13 8.71L124.03 8.71C123.55 9.84 122.54 10.57 121.02 10.57ZM137.34 7.81L141.22 2.21L139.94 2.21L136.81 6.72L133.67 2.21L132.40 2.21L136.29 7.81L136.29 11.48L137.34 11.48ZM163.45 2.10C160.64 2.10 158.75 4.21 158.75 6.85C158.75 9.48 160.64 11.59 163.45 11.59C166.26 11.59 168.15 9.48 168.15 6.85C168.15 4.21 166.26 2.10 163.45 2.10ZM163.45 10.57C161.20 10.57 159.80 8.93 159.80 6.85C159.80 4.76 161.20 3.12 163.45 3.12C165.70 3.12 167.10 4.76 167.10 6.85C167.10 8.93 165.70 10.57 163.45 10.57ZM177.88 8.18L181.01 8.18C182.98 8.18 184.20 7.03 184.20 5.19C184.20 3.37 182.98 2.21 181.01 2.21L176.83 2.21L176.83 11.48L177.88 11.48ZM180.94 3.21C182.39 3.21 183.15 3.96 183.15 5.19C183.15 6.44 182.39 7.20 180.94 7.20L177.88 7.20L177.88 3.21ZM199.44 3.22L199.44 2.21L192.63 2.21L192.63 11.48L199.44 11.48L199.44 10.47L193.68 10.47L193.68 7.35L198.83 7.35L198.83 6.33L193.68 6.33L193.68 3.22ZM209.19 7.92L212.41 7.92L214.65 11.48L215.89 11.48L213.46 7.74C214.49 7.50 215.70 6.90 215.70 5.11C215.70 3.35 214.48 2.21 212.58 2.21L208.14 2.21L208.14 11.48L209.19 11.48ZM209.19 3.21L212.45 3.21C213.77 3.21 214.65 3.93 214.65 5.11C214.65 6.55 213.39 6.93 212.39 6.93L209.19 6.93ZM228.66 2.21L227.35 2.21L223.41 11.48L224.57 11.48L225.71 8.79L230.30 8.79L231.43 11.48L232.60 11.48ZM226.11 7.83L228.00 3.30L229.89 7.83ZM246.53 2.21L239.01 2.21L239.01 3.22L242.24 3.22L242.24 11.48L243.29 11.48L243.29 3.22L246.53 3.22ZM255.91 2.21L254.86 2.21L254.86 11.48L255.91 11.48ZM269.29 2.10C266.48 2.10 264.59 4.21 264.59 6.85C264.59 9.48 266.48 11.59 269.29 11.59C272.10 11.59 273.99 9.48 273.99 6.85C273.99 4.21 272.10 2.10 269.29 2.10ZM269.29 10.57C267.04 10.57 265.64 8.93 265.64 6.85C265.64 4.76 267.04 3.12 269.29 3.12C271.54 3.12 272.94 4.76 272.94 6.85C272.94 8.93 271.54 10.57 269.29 10.57ZM289.62 2.21L289.62 10.01L283.89 2.21L282.67 2.21L282.67 11.48L283.72 11.48L283.72 3.65L289.45 11.48L290.67 11.48L290.67 2.21ZM300.55 4.65C300.55 4.03 300.92 3.08 303.02 3.08C304.71 3.08 305.49 3.82 305.61 4.75L306.68 4.75C306.60 3.36 305.48 2.10 303.02 2.10C300.69 2.10 299.53 3.15 299.53 4.66C299.53 7.84 305.87 6.69 305.87 8.96C305.87 10.05 304.89 10.60 303.32 10.60C301.71 10.60 300.41 10.05 300.34 8.71L299.25 8.71C299.39 10.37 300.51 11.59 303.25 11.59C305.54 11.59 306.92 10.64 306.92 8.92C306.92 5.68 300.55 6.80 300.55 4.65Z"></path></g></svg>