<svg data-v-423bf9ae="" xmlns="http://www.w3.org/2000/svg" viewBox="0 0 314 90" class="iconLeftSlogan"><!----><!----><!----><g data-v-423bf9ae="" id="e93df919-199a-4950-ab83-d109bf0a9bfc" fill="#000000" transform="matrix(10.791365623474121,0,0,10.791365623474121,106.6559829711914,-33.66905975341797)"><path d="M0.31 3.12L0.31 8.59L3.25 8.59L3.25 7.34L1.86 7.34L1.86 3.12L0.31 3.12ZM5.83 6.17L5.83 6.17L5.12 6.17L5.12 5.78L5.12 5.78Q5.12 5.61 5.13 5.50L5.13 5.50L5.13 5.50Q5.14 5.39 5.18 5.29L5.18 5.29L5.18 5.29Q5.23 5.18 5.32 5.14L5.32 5.14L5.32 5.14Q5.40 5.09 5.54 5.09L5.54 5.09L5.54 5.09Q5.71 5.09 5.77 5.33L5.77 5.33L5.77 5.33Q5.83 5.58 5.83 6.17ZM5.46 8.68L5.46 8.68L5.46 8.68Q5.74 8.68 6.04 8.62L6.04 8.62L6.04 8.62Q6.35 8.55 6.68 8.37L6.68 8.37L6.68 8.37Q7.02 8.18 7.19 7.90L7.19 7.90L6.92 7.42L6.92 7.42Q6.79 7.55 6.59 7.63L6.59 7.63L6.59 7.63Q6.40 7.72 6.21 7.77L6.21 7.77L6.21 7.77Q6.02 7.81 5.86 7.81L5.86 7.81L5.86 7.81Q5.69 7.81 5.57 7.78L5.57 7.78L5.57 7.78Q5.46 7.75 5.34 7.67L5.34 7.67L5.34 7.67Q5.23 7.58 5.17 7.41L5.17 7.41L5.17 7.41Q5.11 7.23 5.11 6.95L5.11 6.95L5.11 6.86L7.25 6.86L7.25 6.35L7.25 6.35Q7.25 5.39 6.85 4.96L6.85 4.96L6.85 4.96Q6.45 4.53 5.53 4.53L5.53 4.53L5.53 4.53Q4.58 4.53 4.05 5.06L4.05 5.06L4.05 5.06Q3.51 5.60 3.51 6.65L3.51 6.65L3.51 6.65Q3.51 7.08 3.62 7.44L3.62 7.44L3.62 7.44Q3.72 7.80 3.94 8.08L3.94 8.08L3.94 8.08Q4.16 8.37 4.55 8.53L4.55 8.53L4.55 8.53Q4.93 8.68 5.46 8.68ZM7.28 4.62L8.65 8.59L10.12 8.59L11.31 4.62L10.05 4.62L9.71 6.05L9.47 7.29L9.25 6.05L8.96 4.62L7.28 4.62ZM13.67 6.17L13.67 6.17L12.96 6.17L12.96 5.78L12.96 5.78Q12.96 5.61 12.98 5.50L12.98 5.50L12.98 5.50Q12.99 5.39 13.03 5.29L13.03 5.29L13.03 5.29Q13.07 5.18 13.16 5.14L13.16 5.14L13.16 5.14Q13.25 5.09 13.39 5.09L13.39 5.09L13.39 5.09Q13.55 5.09 13.61 5.33L13.61 5.33L13.61 5.33Q13.67 5.58 13.67 6.17ZM13.30 8.68L13.30 8.68L13.30 8.68Q13.58 8.68 13.89 8.62L13.89 8.62L13.89 8.62Q14.20 8.55 14.53 8.37L14.53 8.37L14.53 8.37Q14.86 8.18 15.04 7.90L15.04 7.90L14.76 7.42L14.76 7.42Q14.63 7.55 14.44 7.63L14.44 7.63L14.44 7.63Q14.24 7.72 14.05 7.77L14.05 7.77L14.05 7.77Q13.86 7.81 13.70 7.81L13.70 7.81L13.70 7.81Q13.53 7.81 13.42 7.78L13.42 7.78L13.42 7.78Q13.30 7.75 13.19 7.67L13.19 7.67L13.19 7.67Q13.08 7.58 13.02 7.41L13.02 7.41L13.02 7.41Q12.96 7.23 12.96 6.95L12.96 6.95L12.96 6.86L15.09 6.86L15.09 6.35L15.09 6.35Q15.09 5.39 14.70 4.96L14.70 4.96L14.70 4.96Q14.30 4.53 13.38 4.53L13.38 4.53L13.38 4.53Q12.42 4.53 11.89 5.06L11.89 5.06L11.89 5.06Q11.36 5.60 11.36 6.65L11.36 6.65L11.36 6.65Q11.36 7.08 11.46 7.44L11.46 7.44L11.46 7.44Q11.56 7.80 11.79 8.08L11.79 8.08L11.79 8.08Q12.01 8.37 12.39 8.53L12.39 8.53L12.39 8.53Q12.78 8.68 13.30 8.68ZM15.20 8.59L16.47 8.59L16.93 7.48L17.39 8.59L19.16 8.59L18.05 6.51L19.10 4.62L17.82 4.62L17.34 5.67L16.93 4.62L15.13 4.62L16.21 6.64L15.20 8.59Z"></path></g><defs data-v-423bf9ae=""><linearGradient data-v-423bf9ae="" gradientTransform="rotate(25)" id="019cd57b-8906-4a02-89f0-ff40b3e8d53e" x1="0%" y1="0%" x2="100%" y2="0%"><stop data-v-423bf9ae="" offset="0%" style="stop-color: rgb(40, 139, 88); stop-opacity: 1;"></stop><stop data-v-423bf9ae="" offset="100%" style="stop-color: rgb(21, 34, 241); stop-opacity: 1;"></stop></linearGradient></defs><g data-v-423bf9ae="" id="f821dc02-2cf9-4a37-ae64-56f1accaa603" transform="matrix(1.0000017881393433,0,0,1.0000017881393433,-4.000657558441162,-5.000009059906006)" stroke="none" fill="url(#019cd57b-8906-4a02-89f0-ff40b3e8d53e)"><path d="M40.95 5v45.378l2.832 2.841V7.84h29.055V27.238H92.17v51.618H69.334l2.831 2.841H95V24.396L75.668 5zm0 69.14v7.557h7.532l-2.831-2.841h-1.869V76.98z" overflow="visible" color="#000"></path><flowroot transform="translate(-83.686 -38.983)" xml:space="preserve" style="text-align:start" font-style="normal" font-variant="normal" font-weight="normal" font-stretch="normal" font-size="16" line-height="125%" font-family="'PT Sans Narrow'" letter-spacing="0" word-spacing="0" text-anchor="start"><flowregion><path d="M-276.551 272.582h161.196v118.051h-161.196z"></path></flowregion><flowpara></flowpara></flowroot><flowroot transform="matrix(.09 0 0 .09 -294.471 726.013)" xml:space="preserve" style="line-height:125%;-inkscape-font-specification:'PT Sans Narrow';text-align:start" font-style="normal" font-variant="normal" font-weight="400" font-stretch="normal" font-size="16" font-family="PT Sans Narrow" letter-spacing="0" word-spacing="0" text-anchor="start" opacity="1" stroke="none" stroke-width="11.111"><flowregion stroke-width="11.111"><path d="M-276.551 272.582h161.196v118.051h-161.196z"></path></flowregion><flowpara stroke-width="11.111"></flowpara></flowroot><path d="M17.274 26.83l10.174 10.208a3.237 3.237 0 0 1 0 4.577l-7.073 7.096a3.211 3.211 0 0 1-4.561 0L5.64 38.504c-1.615 5.72-.179 12.126 4.309 16.629 4.886 4.902 12.017 6.17 18.07 3.813l14.231 14.28L62.01 93.049c2.55 2.558 6.608 2.607 9.098.108l.426-.427c2.49-2.499 2.443-6.57-.106-9.129L45.855 57.944l-8.325-8.353c2.512-6.137 1.286-13.453-3.683-18.437a16.856 16.856 0 0 0-16.573-4.323zm46.15 57.977a4.258 4.258 0 0 1 6.036 0 4.293 4.293 0 0 1 0 6.056 4.258 4.258 0 0 1-6.036 0 4.275 4.275 0 0 1-1.25-3.027c0-1.096.417-2.193 1.25-3.03z" overflow="visible" color="#000"></path></g><!----><g data-v-423bf9ae="" id="67b06ba8-da6a-4889-895f-82fd2b132c58" fill="#000000" transform="matrix(0.5720394849777222,0,0,0.5720394849777222,109.80680084228516,56.74509811401367)"><path d="M1.57 6.36L0.34 6.18L0.39 5.89L6.58 5.89L6.37 8.07L6.06 8.03L5.93 6.24L2.28 6.24L2.28 9.89L4.57 9.89L4.82 8.94L5.19 8.89L4.96 11.55L4.61 11.61L4.50 10.26L2.28 10.26L2.28 14.03L6.12 14.03L6.62 12.19L6.90 12.26L6.70 14.40L0.36 14.40L0.40 14.11L1.57 13.90L1.57 6.36ZM15.83 6.36L14.62 6.18L14.66 5.89L20.86 5.89L20.63 8.09L20.30 8.04L20.15 6.24L16.53 6.24L16.53 10.07L18.81 10.07L19.07 9.11L19.46 9.06L19.24 11.72L18.87 11.77L18.74 10.43L16.53 10.43L16.53 13.92L18.21 14.03L18.13 14.40L14.64 14.40L14.66 14.11L15.83 13.90L15.83 6.36ZM29.78 6.36L28.57 6.18L28.62 5.89L34.81 5.89L34.58 8.09L34.25 8.04L34.10 6.24L30.48 6.24L30.48 10.07L32.76 10.07L33.02 9.11L33.41 9.06L33.20 11.72L32.82 11.77L32.70 10.43L30.48 10.43L30.48 13.92L32.16 14.03L32.08 14.40L28.59 14.40L28.62 14.11L29.78 13.90L29.78 6.36ZM43.68 6.33L42.50 6.16L42.54 5.89L45.66 5.89L45.62 6.16L44.42 6.32L44.42 13.95L45.74 14.08L45.68 14.40L42.57 14.40L42.60 14.11L43.68 13.90L43.68 6.33ZM53.48 10.25L53.48 10.25L53.48 10.25Q53.48 9.73 53.58 9.21L53.58 9.21L53.58 9.21Q53.69 8.68 53.89 8.17L53.89 8.17L53.89 8.17Q54.09 7.66 54.42 7.22L54.42 7.22L54.42 7.22Q54.75 6.77 55.16 6.44L55.16 6.44L55.16 6.44Q55.58 6.10 56.13 5.90L56.13 5.90L56.13 5.90Q56.69 5.71 57.33 5.71L57.33 5.71L57.33 5.71Q58.74 5.71 59.65 6.39L59.65 6.39L59.44 8.70L59.12 8.64L58.91 6.87L58.91 6.87Q58.32 6.09 57.00 6.09L57.00 6.09L57.00 6.09Q55.86 6.09 55.03 7.19L55.03 7.19L55.03 7.19Q54.20 8.30 54.20 10.00L54.20 10.00L54.20 10.00Q54.20 11.92 55.01 12.97L55.01 12.97L55.01 12.97Q55.81 14.03 57.29 14.03L57.29 14.03L57.29 14.03Q58.02 14.03 58.71 13.65L58.71 13.65L58.71 13.65Q59.40 13.28 59.87 12.74L59.87 12.74L60.03 12.99L60.03 12.99Q59.86 13.25 59.57 13.51L59.57 13.51L59.57 13.51Q59.28 13.77 58.90 14.02L58.90 14.02L58.90 14.02Q58.51 14.27 58.00 14.42L58.00 14.42L58.00 14.42Q57.50 14.57 56.97 14.57L56.97 14.57L56.97 14.57Q55.40 14.57 54.44 13.40L54.44 13.40L54.44 13.40Q53.48 12.22 53.48 10.25ZM68.87 6.33L67.68 6.16L67.72 5.89L70.85 5.89L70.80 6.16L69.60 6.32L69.60 13.95L70.92 14.08L70.86 14.40L67.75 14.40L67.79 14.11L68.87 13.90L68.87 6.33ZM79.86 6.36L78.63 6.18L78.68 5.89L84.88 5.89L84.66 8.07L84.35 8.03L84.22 6.24L80.57 6.24L80.57 9.89L82.86 9.89L83.11 8.94L83.48 8.89L83.25 11.55L82.91 11.61L82.80 10.26L80.57 10.26L80.57 14.03L84.41 14.03L84.92 12.19L85.20 12.26L84.99 14.40L78.65 14.40L78.70 14.11L79.86 13.90L79.86 6.36ZM94.15 6.36L92.89 6.14L92.94 5.89L95.01 5.89L99.74 13.17L99.74 6.33L98.49 6.16L98.53 5.89L101.42 5.89L101.37 6.16L100.24 6.32L100.24 14.44L99.87 14.52L94.66 6.65L94.66 13.95L95.92 14.08L95.85 14.40L92.97 14.40L93.01 14.11L94.15 13.90L94.15 6.36ZM109.14 10.25L109.14 10.25L109.14 10.25Q109.14 9.73 109.24 9.21L109.24 9.21L109.24 9.21Q109.35 8.68 109.55 8.17L109.55 8.17L109.55 8.17Q109.75 7.66 110.08 7.22L110.08 7.22L110.08 7.22Q110.41 6.77 110.82 6.44L110.82 6.44L110.82 6.44Q111.23 6.10 111.79 5.90L111.79 5.90L111.79 5.90Q112.35 5.71 112.98 5.71L112.98 5.71L112.98 5.71Q114.40 5.71 115.31 6.39L115.31 6.39L115.10 8.70L114.78 8.64L114.57 6.87L114.57 6.87Q113.98 6.09 112.66 6.09L112.66 6.09L112.66 6.09Q111.51 6.09 110.69 7.19L110.69 7.19L110.69 7.19Q109.86 8.30 109.86 10.00L109.86 10.00L109.86 10.00Q109.86 11.92 110.66 12.97L110.66 12.97L110.66 12.97Q111.47 14.03 112.94 14.03L112.94 14.03L112.94 14.03Q113.67 14.03 114.37 13.65L114.37 13.65L114.37 13.65Q115.06 13.28 115.53 12.74L115.53 12.74L115.68 12.99L115.68 12.99Q115.51 13.25 115.23 13.51L115.23 13.51L115.23 13.51Q114.94 13.77 114.55 14.02L114.55 14.02L114.55 14.02Q114.17 14.27 113.66 14.42L113.66 14.42L113.66 14.42Q113.16 14.57 112.63 14.57L112.63 14.57L112.63 14.57Q111.06 14.57 110.10 13.40L110.10 13.40L110.10 13.40Q109.14 12.22 109.14 10.25ZM124.30 6.35L123.35 6.15L123.38 5.90L126.23 5.90L126.20 6.15L125.06 6.32L127.20 10.49L129.32 6.34L128.06 6.14L128.07 5.89L130.74 5.89L130.72 6.14L129.83 6.32L127.45 11.05L127.45 13.94L128.69 14.08L128.63 14.40L125.49 14.40L125.53 14.11L126.72 13.90L126.72 11.05L124.30 6.35ZM149.13 9.75L149.13 9.75L149.13 9.75Q149.13 11.03 149.50 12.01L149.50 12.01L149.50 12.01Q149.86 13.00 150.58 13.57L150.58 13.57L150.58 13.57Q151.29 14.14 152.27 14.14L152.27 14.14L152.27 14.14Q152.84 14.14 153.34 13.92L153.34 13.92L153.34 13.92Q153.83 13.70 154.17 13.33L154.17 13.33L154.17 13.33Q154.52 12.96 154.76 12.49L154.76 12.49L154.76 12.49Q155.00 12.01 155.12 11.50L155.12 11.50L155.12 11.50Q155.24 10.99 155.24 10.48L155.24 10.48L155.24 10.48Q155.24 8.50 154.39 7.29L154.39 7.29L154.39 7.29Q153.54 6.07 152.09 6.07L152.09 6.07L152.09 6.07Q151.50 6.07 151.01 6.28L151.01 6.28L151.01 6.28Q150.52 6.49 150.18 6.85L150.18 6.85L150.18 6.85Q149.84 7.21 149.60 7.69L149.60 7.69L149.60 7.69Q149.36 8.16 149.25 8.69L149.25 8.69L149.25 8.69Q149.13 9.21 149.13 9.75ZM148.38 10.16L148.38 10.16L148.38 10.16Q148.38 8.16 149.48 6.92L149.48 6.92L149.48 6.92Q150.58 5.69 152.41 5.69L152.41 5.69L152.41 5.69Q153.55 5.69 154.37 6.27L154.37 6.27L154.37 6.27Q155.18 6.86 155.58 7.84L155.58 7.84L155.58 7.84Q155.98 8.83 155.98 10.11L155.98 10.11L155.98 10.11Q155.98 10.75 155.83 11.38L155.83 11.38L155.83 11.38Q155.67 12.00 155.35 12.58L155.35 12.58L155.35 12.58Q155.03 13.17 154.56 13.61L154.56 13.61L154.56 13.61Q154.10 14.05 153.43 14.32L153.43 14.32L153.43 14.32Q152.75 14.58 151.94 14.58L151.94 14.58L151.94 14.58Q150.89 14.58 150.07 13.98L150.07 13.98L150.07 13.98Q149.24 13.37 148.81 12.37L148.81 12.37L148.81 12.37Q148.38 11.37 148.38 10.16ZM167.11 14.40L163.70 14.40L163.73 14.11L164.81 13.90L164.81 6.51L163.71 6.36L163.77 6.12L163.77 6.12Q163.94 6.09 164.39 6.02L164.39 6.02L164.39 6.02Q164.83 5.94 165.06 5.91L165.06 5.91L165.06 5.91Q165.29 5.88 165.70 5.84L165.70 5.84L165.70 5.84Q166.11 5.81 166.53 5.81L166.53 5.81L166.53 5.81Q167.22 5.81 167.81 5.96L167.81 5.96L167.81 5.96Q168.40 6.10 168.86 6.40L168.86 6.40L168.86 6.40Q169.32 6.69 169.58 7.18L169.58 7.18L169.58 7.18Q169.84 7.66 169.84 8.29L169.84 8.29L169.84 8.29Q169.84 8.90 169.56 9.43L169.56 9.43L169.56 9.43Q169.28 9.97 168.82 10.33L168.82 10.33L168.82 10.33Q168.36 10.69 167.75 10.90L167.75 10.90L167.75 10.90Q167.15 11.10 166.52 11.10L166.52 11.10L166.52 11.10Q166.24 11.10 166.17 11.09L166.17 11.09L166.11 10.80L166.48 10.78L166.48 10.78Q167.14 10.75 167.63 10.55L167.63 10.55L167.63 10.55Q168.13 10.36 168.42 10.03L168.42 10.03L168.42 10.03Q168.71 9.70 168.85 9.30L168.85 9.30L168.85 9.30Q168.99 8.90 168.99 8.43L168.99 8.43L168.99 8.43Q168.99 7.98 168.82 7.57L168.82 7.57L168.82 7.57Q168.66 7.16 168.33 6.83L168.33 6.83L168.33 6.83Q168.01 6.50 167.49 6.31L167.49 6.31L167.49 6.31Q166.97 6.11 166.32 6.11L166.32 6.11L165.57 6.15L165.57 13.95L167.17 14.08L167.11 14.40ZM178.75 6.36L177.53 6.18L177.58 5.89L183.77 5.89L183.56 8.07L183.24 8.03L183.11 6.24L179.46 6.24L179.46 9.89L181.75 9.89L182.01 8.94L182.38 8.89L182.15 11.55L181.80 11.61L181.69 10.26L179.46 10.26L179.46 14.03L183.31 14.03L183.81 12.19L184.09 12.26L183.89 14.40L177.55 14.40L177.59 14.11L178.75 13.90L178.75 6.36ZM193.62 6.18L193.62 10.11L195.17 10.11L195.17 10.11Q195.86 9.86 196.31 9.28L196.31 9.28L196.31 9.28Q196.77 8.70 196.77 8.02L196.77 8.02L196.77 8.02Q196.77 7.11 196.15 6.63L196.15 6.63L196.15 6.63Q195.54 6.15 194.45 6.15L194.45 6.15L193.62 6.18ZM195.00 14.40L191.80 14.40L191.85 14.11L192.92 13.90L192.92 6.51L191.82 6.37L191.88 6.13L191.88 6.13Q193.71 5.83 194.79 5.83L194.79 5.83L194.79 5.83Q195.56 5.83 196.16 6.05L196.16 6.05L196.16 6.05Q196.77 6.27 197.15 6.73L197.15 6.73L197.15 6.73Q197.52 7.19 197.52 7.83L197.52 7.83L197.52 7.83Q197.52 8.57 197.10 9.14L197.10 9.14L197.10 9.14Q196.67 9.72 195.64 10.23L195.64 10.23L195.64 10.23L196.96 12.19L196.96 12.19Q197.67 13.23 198.01 13.58L198.01 13.58L198.01 13.58Q198.36 13.92 198.74 14.05L198.74 14.05L199.07 14.16L199.03 14.42L199.03 14.42Q198.73 14.52 198.39 14.52L198.39 14.52L198.39 14.52Q198.11 14.52 197.85 14.40L197.85 14.40L197.85 14.40Q197.60 14.28 197.36 14.01L197.36 14.01L197.36 14.01Q197.11 13.75 196.93 13.48L196.93 13.48L196.93 13.48Q196.75 13.22 196.47 12.77L196.47 12.77L195.08 10.49L193.62 10.49L193.62 13.95L195.06 14.08L195.00 14.40ZM210.82 6.98L209.45 10.75L212.14 10.75L210.82 6.98ZM209.50 14.40L206.77 14.40L206.81 14.11L207.78 13.90L210.77 5.82L211.13 5.73L213.97 13.95L214.87 14.08L214.82 14.39L212.02 14.39L212.08 14.10L213.22 13.90L212.27 11.13L209.32 11.13L208.30 13.95L209.56 14.08L209.50 14.40ZM222.63 8.09L222.56 5.89L229.62 5.89L229.38 8.16L229.04 8.12L228.92 6.24L226.39 6.24L226.39 13.90L227.60 14.08L227.52 14.40L224.42 14.40L224.46 14.11L225.65 13.90L225.65 6.24L223.22 6.24L222.98 8.15L222.63 8.09ZM238.49 6.33L237.31 6.16L237.35 5.89L240.47 5.89L240.43 6.16L239.23 6.32L239.23 13.95L240.55 14.08L240.49 14.40L237.38 14.40L237.41 14.11L238.49 13.90L238.49 6.33ZM249.04 9.75L249.04 9.75L249.04 9.75Q249.04 11.03 249.40 12.01L249.40 12.01L249.40 12.01Q249.76 13.00 250.48 13.57L250.48 13.57L250.48 13.57Q251.20 14.14 252.18 14.14L252.18 14.14L252.18 14.14Q252.75 14.14 253.24 13.92L253.24 13.92L253.24 13.92Q253.74 13.70 254.08 13.33L254.08 13.33L254.08 13.33Q254.43 12.96 254.67 12.49L254.67 12.49L254.67 12.49Q254.91 12.01 255.03 11.50L255.03 11.50L255.03 11.50Q255.14 10.99 255.14 10.48L255.14 10.48L255.14 10.48Q255.14 8.50 254.29 7.29L254.29 7.29L254.29 7.29Q253.44 6.07 251.99 6.07L251.99 6.07L251.99 6.07Q251.41 6.07 250.92 6.28L250.92 6.28L250.92 6.28Q250.43 6.49 250.09 6.85L250.09 6.85L250.09 6.85Q249.74 7.21 249.50 7.69L249.50 7.69L249.50 7.69Q249.27 8.16 249.15 8.69L249.15 8.69L249.15 8.69Q249.04 9.21 249.04 9.75ZM248.29 10.16L248.29 10.16L248.29 10.16Q248.29 8.16 249.39 6.92L249.39 6.92L249.39 6.92Q250.48 5.69 252.32 5.69L252.32 5.69L252.32 5.69Q253.46 5.69 254.27 6.27L254.27 6.27L254.27 6.27Q255.09 6.86 255.49 7.84L255.49 7.84L255.49 7.84Q255.88 8.83 255.88 10.11L255.88 10.11L255.88 10.11Q255.88 10.75 255.73 11.38L255.73 11.38L255.73 11.38Q255.58 12.00 255.26 12.58L255.26 12.58L255.26 12.58Q254.93 13.17 254.47 13.61L254.47 13.61L254.47 13.61Q254.01 14.05 253.33 14.32L253.33 14.32L253.33 14.32Q252.66 14.58 251.85 14.58L251.85 14.58L251.85 14.58Q250.80 14.58 249.97 13.98L249.97 13.98L249.97 13.98Q249.15 13.37 248.72 12.37L248.72 12.37L248.72 12.37Q248.29 11.37 248.29 10.16ZM264.85 6.36L263.59 6.14L263.64 5.89L265.71 5.89L270.44 13.17L270.44 6.33L269.19 6.16L269.23 5.89L272.13 5.89L272.07 6.16L270.94 6.32L270.94 14.44L270.57 14.52L265.36 6.65L265.36 13.95L266.62 14.08L266.55 14.40L263.67 14.40L263.71 14.11L264.85 13.90L264.85 6.36ZM279.82 13.60L279.82 13.60L280.02 11.66L280.35 11.71L280.54 13.21L280.54 13.21Q280.77 13.64 281.30 13.89L281.30 13.89L281.30 13.89Q281.83 14.14 282.43 14.14L282.43 14.14L282.43 14.14Q283.11 14.14 283.59 13.74L283.59 13.74L283.59 13.74Q284.07 13.33 284.07 12.61L284.07 12.61L284.07 12.61Q284.07 12.20 283.85 11.83L283.85 11.83L283.85 11.83Q283.64 11.46 283.29 11.18L283.29 11.18L283.29 11.18Q282.95 10.90 282.53 10.63L282.53 10.63L282.53 10.63Q282.11 10.36 281.69 10.07L281.69 10.07L281.69 10.07Q281.27 9.79 280.93 9.48L280.93 9.48L280.93 9.48Q280.58 9.17 280.37 8.75L280.37 8.75L280.37 8.75Q280.15 8.33 280.15 7.84L280.15 7.84L280.15 7.84Q280.15 6.88 280.84 6.29L280.84 6.29L280.84 6.29Q281.54 5.71 282.42 5.71L282.42 5.71L282.42 5.71Q283.01 5.71 283.55 5.90L283.55 5.90L283.55 5.90Q284.09 6.09 284.42 6.46L284.42 6.46L284.19 8.58L283.88 8.53L283.69 6.87L283.69 6.87Q283.51 6.54 283.09 6.32L283.09 6.32L283.09 6.32Q282.67 6.10 282.24 6.10L282.24 6.10L282.24 6.10Q281.65 6.10 281.23 6.48L281.23 6.48L281.23 6.48Q280.82 6.87 280.82 7.52L280.82 7.52L280.82 7.52Q280.82 7.96 281.04 8.35L281.04 8.35L281.04 8.35Q281.26 8.74 281.62 9.03L281.62 9.03L281.62 9.03Q281.97 9.32 282.39 9.61L282.39 9.61L282.39 9.61Q282.82 9.89 283.24 10.17L283.24 10.17L283.24 10.17Q283.67 10.45 284.02 10.75L284.02 10.75L284.02 10.75Q284.38 11.05 284.60 11.45L284.60 11.45L284.60 11.45Q284.82 11.85 284.82 12.29L284.82 12.29L284.82 12.29Q284.82 13.28 284.07 13.93L284.07 13.93L284.07 13.93Q283.32 14.57 282.07 14.57L282.07 14.57L282.07 14.57Q281.36 14.57 280.76 14.30L280.76 14.30L280.76 14.30Q280.16 14.03 279.82 13.60Z"></path></g></svg>