<svg data-v-fde0c5aa="" xmlns="http://www.w3.org/2000/svg" viewBox="0 0 300 300" class="font"><!----><defs data-v-fde0c5aa=""><!----></defs><rect data-v-fde0c5aa="" fill="transparent" x="0" y="0" width="300px" height="300px" class="logo-background-square"></rect><defs data-v-fde0c5aa=""><linearGradient data-v-fde0c5aa="" gradientTransform="rotate(25)" id="38e0f033-cdca-45c1-867b-8fa0a711fead" x1="0%" y1="0%" x2="100%" y2="0%"><stop data-v-fde0c5aa="" offset="0%" stop-color="#288B58" stop-opacity="1"></stop><stop data-v-fde0c5aa="" offset="100%" stop-color="#1522F1" stop-opacity="1"></stop></linearGradient></defs><g data-v-fde0c5aa="" id="5d5bd530-c779-459f-9c70-c7a51b8627f8" fill="url(#38e0f033-cdca-45c1-867b-8fa0a711fead)" transform="matrix(11.671087265014648,0,0,11.671087265014648,36.3819629101141,81.14058383485136)"><path d="M0.31 3.12L0.31 8.59L3.25 8.59L3.25 7.34L1.86 7.34L1.86 3.12L0.31 3.12ZM5.83 6.17L5.83 6.17L5.12 6.17L5.12 5.78L5.12 5.78Q5.12 5.61 5.13 5.50L5.13 5.50L5.13 5.50Q5.14 5.39 5.18 5.29L5.18 5.29L5.18 5.29Q5.23 5.18 5.32 5.14L5.32 5.14L5.32 5.14Q5.40 5.09 5.54 5.09L5.54 5.09L5.54 5.09Q5.71 5.09 5.77 5.33L5.77 5.33L5.77 5.33Q5.83 5.58 5.83 6.17ZM5.46 8.68L5.46 8.68L5.46 8.68Q5.74 8.68 6.04 8.62L6.04 8.62L6.04 8.62Q6.35 8.55 6.68 8.37L6.68 8.37L6.68 8.37Q7.02 8.18 7.19 7.90L7.19 7.90L6.92 7.42L6.92 7.42Q6.79 7.55 6.59 7.63L6.59 7.63L6.59 7.63Q6.40 7.72 6.21 7.77L6.21 7.77L6.21 7.77Q6.02 7.81 5.86 7.81L5.86 7.81L5.86 7.81Q5.69 7.81 5.57 7.78L5.57 7.78L5.57 7.78Q5.46 7.75 5.34 7.67L5.34 7.67L5.34 7.67Q5.23 7.58 5.17 7.41L5.17 7.41L5.17 7.41Q5.11 7.23 5.11 6.95L5.11 6.95L5.11 6.86L7.25 6.86L7.25 6.35L7.25 6.35Q7.25 5.39 6.85 4.96L6.85 4.96L6.85 4.96Q6.45 4.53 5.53 4.53L5.53 4.53L5.53 4.53Q4.58 4.53 4.05 5.06L4.05 5.06L4.05 5.06Q3.51 5.60 3.51 6.65L3.51 6.65L3.51 6.65Q3.51 7.08 3.62 7.44L3.62 7.44L3.62 7.44Q3.72 7.80 3.94 8.08L3.94 8.08L3.94 8.08Q4.16 8.37 4.55 8.53L4.55 8.53L4.55 8.53Q4.93 8.68 5.46 8.68ZM7.28 4.62L8.65 8.59L10.12 8.59L11.31 4.62L10.05 4.62L9.71 6.05L9.47 7.29L9.25 6.05L8.96 4.62L7.28 4.62ZM13.67 6.17L13.67 6.17L12.96 6.17L12.96 5.78L12.96 5.78Q12.96 5.61 12.98 5.50L12.98 5.50L12.98 5.50Q12.99 5.39 13.03 5.29L13.03 5.29L13.03 5.29Q13.07 5.18 13.16 5.14L13.16 5.14L13.16 5.14Q13.25 5.09 13.39 5.09L13.39 5.09L13.39 5.09Q13.55 5.09 13.61 5.33L13.61 5.33L13.61 5.33Q13.67 5.58 13.67 6.17ZM13.30 8.68L13.30 8.68L13.30 8.68Q13.58 8.68 13.89 8.62L13.89 8.62L13.89 8.62Q14.20 8.55 14.53 8.37L14.53 8.37L14.53 8.37Q14.86 8.18 15.04 7.90L15.04 7.90L14.76 7.42L14.76 7.42Q14.63 7.55 14.44 7.63L14.44 7.63L14.44 7.63Q14.24 7.72 14.05 7.77L14.05 7.77L14.05 7.77Q13.86 7.81 13.70 7.81L13.70 7.81L13.70 7.81Q13.53 7.81 13.42 7.78L13.42 7.78L13.42 7.78Q13.30 7.75 13.19 7.67L13.19 7.67L13.19 7.67Q13.08 7.58 13.02 7.41L13.02 7.41L13.02 7.41Q12.96 7.23 12.96 6.95L12.96 6.95L12.96 6.86L15.09 6.86L15.09 6.35L15.09 6.35Q15.09 5.39 14.70 4.96L14.70 4.96L14.70 4.96Q14.30 4.53 13.38 4.53L13.38 4.53L13.38 4.53Q12.42 4.53 11.89 5.06L11.89 5.06L11.89 5.06Q11.36 5.60 11.36 6.65L11.36 6.65L11.36 6.65Q11.36 7.08 11.46 7.44L11.46 7.44L11.46 7.44Q11.56 7.80 11.79 8.08L11.79 8.08L11.79 8.08Q12.01 8.37 12.39 8.53L12.39 8.53L12.39 8.53Q12.78 8.68 13.30 8.68ZM15.20 8.59L16.47 8.59L16.93 7.48L17.39 8.59L19.16 8.59L18.05 6.51L19.10 4.62L17.82 4.62L17.34 5.67L16.93 4.62L15.13 4.62L16.21 6.64L15.20 8.59Z"></path></g><!----><!----></svg>