<svg data-v-423bf9ae="" xmlns="http://www.w3.org/2000/svg" viewBox="0 0 216.7334034302326 60" class="font"><!----><!----><!----><g data-v-423bf9ae="" id="33cbd5c2-36b3-42c0-b0e4-fddd77d679f7" fill="white" transform="matrix(6.322443962097168,0,0,6.322443962097168,-7.397258281707764,-24.151735305786133)"><path d="M2.65 11.87L2.65 3.82L1.17 3.82L1.17 13.15L6.97 13.15L6.97 11.87ZM14.12 9.70C14.12 7.73 12.79 6.36 10.86 6.36C8.87 6.36 7.45 7.89 7.45 9.84C7.45 11.80 8.85 13.31 11.03 13.31C12.18 13.31 13.14 12.92 13.74 12.25L12.76 11.46C12.34 11.94 11.77 12.19 11.01 12.19C9.77 12.19 9.04 11.33 8.94 10.15L14.12 10.15ZM10.86 7.50C11.90 7.50 12.57 8.12 12.72 9.17L9.00 9.17C9.20 8.17 9.89 7.50 10.86 7.50ZM19.75 6.53L17.82 11.48L15.88 6.53L14.38 6.53L17.24 13.15L18.40 13.15L21.26 6.53ZM28.18 9.70C28.18 7.73 26.85 6.36 24.92 6.36C22.93 6.36 21.51 7.89 21.51 9.84C21.51 11.80 22.91 13.31 25.08 13.31C26.24 13.31 27.20 12.92 27.80 12.25L26.82 11.46C26.40 11.94 25.83 12.19 25.07 12.19C23.83 12.19 23.10 11.33 23.00 10.15L28.18 10.15ZM24.92 7.50C25.96 7.50 26.63 8.12 26.78 9.17L23.06 9.17C23.26 8.17 23.95 7.50 24.92 7.50ZM35.45 13.15L32.90 9.70L35.18 6.53L33.57 6.53L32.10 8.74L30.61 6.53L29.02 6.53L31.31 9.71L28.76 13.15L30.39 13.15L32.10 10.68L33.80 13.15Z"></path></g><!----><!----></svg>